<?xml version="1.0" standalone="no"?>
<!DOCTYPE svg PUBLIC "-//W3C//DTD SVG 20010904//EN"
 "http://www.w3.org/TR/2001/REC-SVG-20010904/DTD/svg10.dtd">
<svg version="1.0" xmlns="http://www.w3.org/2000/svg"
 width="686.000000pt" height="686.000000pt" viewBox="0 0 686.000000 686.000000"
 preserveAspectRatio="xMidYMid meet">
<metadata>
Created by potrace 1.11, written by Peter Selinger 2001-2013
</metadata>
<g transform="translate(0.000000,686.000000) scale(0.100000,-0.100000)"
fill="#000000" stroke="none">
<path d="M3155 6849 c-33 -3 -54 -6 -46 -7 8 -1 11 -5 8 -8 -4 -4 -13 -1 -21
5 -10 8 -16 9 -21 1 -9 -14 -55 -13 -55 2 0 6 -7 3 -15 -8 -13 -16 -16 -17
-25 -4 -7 11 -10 11 -10 2 0 -7 -4 -10 -10 -7 -5 3 -10 2 -10 -3 0 -9 -65 -28
-82 -24 -5 1 -8 -5 -8 -14 0 -9 -5 -12 -12 -8 -15 9 -71 10 -85 1 -6 -4 -14
-1 -16 5 -3 8 -6 6 -6 -5 -1 -17 -36 -36 -76 -41 -11 -1 -31 -9 -45 -16 -25
-14 -30 -16 -65 -22 -11 -2 -25 -7 -32 -11 -7 -4 -24 -5 -38 -3 -24 4 -25 3
-13 -11 11 -14 10 -16 -9 -11 -20 5 -21 3 -13 -12 12 -23 13 -33 1 -26 -5 4
-11 1 -13 -4 -2 -6 -13 -12 -26 -13 -12 0 -22 -4 -22 -8 0 -4 -13 -12 -30 -18
-16 -5 -30 -15 -30 -20 0 -6 -9 -15 -20 -21 -12 -6 -20 -7 -20 -1 0 5 8 12 18
14 15 4 15 5 0 6 -22 1 -30 -12 -32 -54 -1 -29 2 -34 25 -37 19 -3 25 0 22 9
-3 7 2 13 10 13 8 0 20 6 26 14 7 8 27 17 46 20 19 4 35 11 35 16 0 6 6 10 14
10 8 0 17 7 20 16 4 9 13 14 22 10 8 -3 12 -2 9 4 -6 9 -2 12 28 14 6 1 21 9
31 19 13 11 36 17 66 17 26 0 50 3 54 8 4 4 17 7 29 7 12 1 28 4 34 8 7 4 22
3 34 -3 25 -14 49 -6 49 15 0 8 1 15 3 15 1 1 20 3 42 6 22 4 41 10 43 15 2 5
11 5 20 1 19 -8 95 -8 128 1 11 3 27 2 34 -3 7 -5 24 -4 36 0 14 6 26 5 29 0
4 -7 13 -6 26 0 10 6 19 7 19 2 0 -4 17 -7 38 -6 45 1 73 -6 67 -16 -3 -5 4
-6 15 -3 16 4 19 2 14 -13 -6 -18 -6 -18 8 0 9 12 17 15 21 8 4 -5 16 -8 27
-5 11 3 20 1 20 -4 0 -13 67 -19 108 -9 12 2 22 1 22 -5 0 -5 3 -8 8 -7 8 1
58 -10 82 -19 8 -4 18 -5 23 -5 4 1 7 -2 7 -8 0 -6 3 -9 8 -8 4 1 27 -2 52 -7
25 -5 55 -9 66 -10 12 0 28 -6 36 -13 8 -6 19 -8 23 -4 5 4 5 -1 2 -11 -4 -10
-3 -16 2 -13 9 6 38 -20 78 -68 35 -42 143 -94 181 -87 8 1 20 -3 28 -10 11
-9 12 -15 2 -28 -10 -13 -10 -14 1 -4 7 6 21 9 30 6 14 -4 14 -3 1 6 -13 10
-13 12 0 21 10 6 17 5 23 -6 5 -8 13 -11 19 -8 7 4 8 2 4 -4 -4 -7 -2 -12 3
-12 6 0 11 -4 11 -10 0 -5 -6 -10 -14 -10 -20 0 -30 -18 -18 -33 11 -13 12
-17 12 -48 0 -11 4 -18 9 -14 5 3 12 1 16 -5 3 -5 24 -7 48 -4 23 3 77 7 120
9 l78 3 24 -36 c13 -19 22 -39 20 -42 -3 -4 9 -10 26 -14 17 -3 28 -10 24 -15
-3 -6 6 -6 24 -1 37 10 41 6 41 -41 0 -21 6 -39 13 -42 9 -3 9 -10 -2 -28 -12
-21 -12 -22 0 -12 20 16 83 -22 75 -46 -5 -14 -4 -14 7 1 13 16 15 16 30 -3 9
-10 17 -24 17 -29 0 -6 5 -10 10 -10 6 0 10 -6 10 -14 0 -7 11 -25 25 -40 14
-15 25 -24 25 -21 0 13 38 -32 44 -52 4 -13 20 -30 37 -40 16 -9 29 -22 29
-28 0 -5 4 -4 9 4 12 19 30 5 24 -19 -3 -12 0 -20 7 -20 7 0 10 -7 6 -15 -3
-8 -1 -15 4 -15 6 0 10 -13 10 -30 0 -30 -14 -41 -23 -17 -3 6 -6 -10 -6 -38
0 -27 3 -45 7 -38 5 8 14 3 27 -17 11 -17 23 -30 27 -30 4 0 5 -7 2 -15 -5
-12 3 -15 37 -16 24 -1 49 -1 54 0 6 1 1 -6 -9 -14 -11 -8 -14 -15 -7 -15 7 0
10 -4 6 -9 -3 -5 -1 -12 3 -15 5 -3 9 -24 10 -46 1 -23 -2 -39 -7 -36 -4 3 -8
-4 -7 -17 0 -12 9 -25 19 -29 11 -5 15 -13 11 -19 -4 -8 -3 -9 5 -5 6 4 9 12
6 17 -4 5 -1 9 4 9 10 0 15 -17 14 -47 -1 -7 3 -10 8 -7 5 3 9 -1 9 -9 0 -18
37 -29 47 -15 3 7 1 8 -5 4 -7 -4 -12 -2 -12 3 0 10 21 16 43 12 4 0 7 4 7 9
0 6 8 5 20 -2 24 -15 26 -45 5 -84 -9 -17 -11 -30 -5 -32 18 -6 11 -56 -16
-108 -23 -45 -30 -51 -57 -52 -65 0 -67 -1 -67 -27 0 -14 -7 -36 -15 -49 -15
-22 -14 -24 5 -29 11 -3 23 -5 26 -5 13 -1 44 -47 45 -66 2 -40 -3 -51 -37
-83 -34 -32 -43 -56 -24 -68 6 -3 10 -19 10 -35 0 -22 4 -28 15 -24 8 4 15 2
15 -4 0 -6 -5 -12 -11 -14 -16 -5 -18 -84 -2 -81 7 2 18 -15 24 -37 7 -22 15
-40 19 -40 7 0 8 -50 1 -51 -4 0 -16 -2 -28 -5 -12 -2 -25 1 -28 6 -4 6 -11 8
-16 5 -5 -4 -9 -1 -9 5 0 6 -16 18 -35 26 -20 8 -33 19 -30 24 3 6 2 10 -4 10
-5 0 -12 -6 -14 -12 -3 -8 -6 -6 -6 5 -1 9 -6 17 -13 17 -6 0 -8 3 -5 7 7 6
-31 38 -45 38 -4 0 -16 9 -26 21 -11 11 -34 26 -51 34 -25 10 -29 15 -20 27
10 11 9 12 -5 7 -16 -6 -20 3 -17 36 1 10 -1 11 -6 3 -12 -17 -77 12 -69 32 3
8 1 15 -3 15 -5 0 -12 -6 -14 -12 -3 -8 -6 -5 -6 5 -1 10 -5 15 -11 12 -5 -3
-10 0 -10 8 0 8 -7 17 -15 21 -8 3 -15 13 -15 22 0 8 -5 14 -12 12 -6 -2 -25
11 -41 29 -16 18 -33 31 -37 28 -4 -3 -13 2 -20 10 -7 8 -16 12 -21 9 -9 -5
-20 3 -80 59 -10 9 -25 16 -32 15 -7 -2 -13 10 -15 32 -1 19 -6 42 -9 50 -3 8
-8 24 -10 34 -2 11 -19 41 -38 68 -19 26 -35 54 -35 61 0 8 -4 7 -10 -3 -8
-12 -12 -9 -21 15 -15 37 -59 75 -96 81 -47 8 -64 15 -58 25 4 5 -1 9 -9 9 -8
0 -18 9 -21 20 -4 11 -11 18 -16 15 -5 -4 -9 1 -9 9 0 9 -6 16 -13 16 -7 0
-21 16 -30 35 -9 19 -22 35 -29 35 -9 0 -8 3 2 10 13 8 13 10 -2 10 -9 0 -23
6 -30 13 -7 7 -29 13 -48 15 -79 5 -135 10 -135 12 0 4 -43 12 -80 14 -22 1
-46 5 -53 10 -6 4 -12 3 -12 -3 0 -5 -12 -8 -27 -6 -16 2 -36 -1 -46 -7 -13
-7 -25 -5 -42 6 -30 20 -35 20 -35 0 0 -11 -6 -15 -20 -11 -10 3 -21 0 -22 -5
-2 -6 -18 -2 -36 9 -17 11 -31 22 -29 24 1 3 -6 -4 -15 -14 -10 -10 -22 -16
-28 -12 -6 4 -17 1 -25 -5 -9 -8 -27 -10 -47 -6 -18 4 -50 7 -70 8 -22 0 -35
4 -32 10 4 6 -1 6 -13 0 -10 -6 -25 -7 -32 -3 -7 5 -22 6 -34 3 -14 -3 -18 -1
-13 6 5 8 -4 12 -27 12 -27 0 -36 -5 -40 -21 -3 -12 -10 -18 -16 -14 -6 3 -8
12 -4 18 5 9 3 9 -8 2 -17 -12 -39 -13 -58 -1 -10 6 -12 5 -7 -2 8 -13 -39
-37 -63 -33 -7 1 -10 -2 -6 -9 4 -7 -2 -9 -19 -6 -14 3 -30 -2 -37 -10 -6 -7
-15 -12 -19 -9 -4 3 -20 -5 -35 -17 -20 -16 -24 -23 -13 -29 10 -7 9 -9 -4 -9
-12 0 -15 -5 -11 -16 4 -12 2 -15 -8 -12 -8 3 -20 -2 -27 -11 -12 -15 -13 -15
-9 0 3 9 -1 16 -9 16 -7 0 -11 -4 -8 -9 8 -12 -6 -49 -16 -43 -8 5 -20 -17
-27 -49 -2 -11 -9 -26 -16 -35 -9 -12 -9 -13 1 -7 8 5 12 0 12 -14 0 -12 -4
-19 -9 -16 -5 3 -14 -1 -21 -9 -10 -12 -16 -13 -28 -3 -13 10 -14 10 -8 1 4
-7 3 -13 -3 -13 -5 0 -17 -3 -27 -7 -12 -4 -15 -3 -10 5 5 8 2 10 -8 6 -9 -3
-16 -12 -16 -19 0 -7 -17 -16 -37 -20 -21 -4 -49 -10 -63 -13 -14 -3 -44 -6
-68 -7 -24 0 -41 -4 -38 -10 2 -5 -13 -11 -33 -12 -20 0 -56 -4 -81 -7 -25 -3
-69 -7 -99 -10 -30 -3 -58 -11 -62 -18 -7 -10 -9 -10 -9 2 0 11 -2 12 -8 3 -5
-7 -20 -14 -35 -15 -15 -1 -27 -6 -27 -10 0 -15 -48 -8 -65 8 -9 10 -30 17
-47 16 -33 -1 -57 16 -51 34 2 7 -3 14 -12 18 -11 4 -14 2 -9 -6 4 -7 3 -8 -4
-4 -7 4 -12 13 -12 20 0 8 -7 19 -15 26 -9 8 -13 21 -10 34 5 17 4 18 -5 6 -9
-13 -12 -13 -24 2 -7 10 -16 15 -19 11 -4 -3 -7 -1 -7 4 0 6 -18 14 -40 18
-25 4 -38 11 -33 17 4 7 1 8 -7 3 -7 -5 -38 -9 -69 -11 -64 -3 -84 -6 -91 -16
-10 -12 -60 -21 -60 -9 0 6 6 8 14 5 8 -3 16 -2 19 3 3 4 -5 9 -18 9 -19 2
-25 -4 -27 -25 -2 -20 -8 -25 -23 -23 -11 2 -17 1 -13 -3 8 -8 -95 -65 -118
-65 -8 0 -14 -6 -14 -14 0 -8 -11 -17 -25 -20 -14 -4 -23 -10 -21 -15 3 -5 -3
-11 -14 -14 -13 -3 -18 -11 -14 -20 3 -10 -3 -21 -15 -29 -12 -7 -21 -16 -21
-21 0 -4 5 -5 11 -1 8 4 8 1 1 -12 -6 -11 -11 -23 -12 -29 -1 -5 -4 -12 -7
-15 -4 -3 -3 2 2 10 5 8 5 12 0 8 -4 -4 -9 -26 -11 -49 -3 -23 -8 -47 -14 -54
-5 -6 -8 -24 -6 -40 3 -31 -12 -56 -29 -47 -5 2 -4 -1 2 -8 10 -11 6 -20 -23
-48 -26 -25 -33 -39 -28 -54 4 -13 2 -18 -5 -14 -6 4 -13 -4 -17 -20 -4 -15
-13 -34 -21 -43 -7 -9 -13 -20 -12 -25 0 -5 -5 -13 -13 -17 -10 -7 -9 -9 3 -9
13 0 16 -8 13 -32 -2 -18 -5 -85 -7 -148 -1 -63 -7 -121 -11 -129 -6 -10 -5
-12 2 -7 7 4 12 0 13 -11 5 -130 23 -187 62 -199 12 -4 25 -11 28 -17 4 -5 34
-11 67 -12 35 -1 67 -8 76 -16 35 -31 44 -38 50 -32 3 4 6 -1 6 -11 0 -9 4
-15 9 -12 5 3 9 -6 9 -19 0 -14 -6 -25 -12 -25 -6 0 -4 -5 4 -10 10 -7 11 -10
2 -10 -19 0 8 -38 33 -47 31 -11 129 -4 153 10 7 5 12 4 12 -2 0 -6 5 -11 11
-11 5 0 8 4 4 9 -7 13 25 30 65 34 17 2 39 12 48 23 17 18 16 18 -5 0 -13 -11
-23 -15 -23 -9 0 5 15 18 34 28 19 10 39 26 45 34 6 9 21 32 34 51 12 19 32
39 43 44 11 5 26 22 33 38 9 19 18 27 28 24 8 -3 11 -1 8 4 -3 6 -1 10 5 10 6
0 16 11 22 25 6 14 18 25 25 25 8 0 12 4 8 10 -3 5 3 18 15 30 11 11 17 20 13
20 -3 0 1 8 10 18 9 10 19 29 21 43 2 13 5 25 7 27 1 1 2 8 3 15 1 6 7 11 14
9 7 -1 12 9 12 23 0 14 5 25 10 25 6 0 10 6 8 13 -4 17 22 77 34 77 5 0 6 -5
2 -12 -4 -7 -3 -8 4 -4 8 5 9 13 3 24 -14 27 18 76 55 84 10 2 18 10 16 16 -1
7 2 12 8 12 5 0 10 14 10 30 0 17 5 30 11 30 5 0 7 4 4 10 -3 6 -1 10 4 10 6
0 11 9 11 21 0 11 4 18 8 15 7 -4 8 63 2 72 -8 9 -3 29 10 39 8 7 11 13 5 13
-5 0 -4 4 4 9 16 10 22 61 8 61 -5 0 -4 7 3 15 7 8 9 15 6 15 -4 0 -2 9 4 20
8 16 8 22 -4 26 -8 3 -17 12 -20 20 -13 33 109 54 153 26 35 -22 56 -53 53
-74 -2 -10 2 -18 7 -18 6 0 11 -6 11 -14 0 -7 10 -21 23 -30 12 -9 15 -14 7
-10 -12 6 -13 4 -2 -7 16 -17 15 -24 -5 -45 -21 -21 -26 -155 -5 -162 6 -2 9
-9 5 -15 -7 -12 -12 -149 -5 -142 2 2 14 -7 27 -21 12 -13 30 -24 39 -24 10 0
15 -4 11 -9 -3 -6 4 -8 15 -6 12 2 24 -4 30 -16 6 -11 15 -17 19 -14 9 5 26
-23 23 -38 -1 -4 8 -11 20 -16 13 -5 33 -19 45 -30 12 -12 27 -21 32 -21 13 0
32 -35 24 -44 -3 -3 1 -14 10 -24 10 -10 15 -21 12 -24 -3 -3 9 -12 27 -21 18
-9 40 -25 48 -36 8 -12 18 -21 23 -21 11 0 56 -52 57 -66 0 -6 39 -17 91 -25
74 -11 95 -18 119 -40 15 -15 31 -25 34 -22 12 12 97 10 110 -2 22 -22 83 -35
96 -20 6 8 25 11 51 8 28 -4 44 -1 50 8 5 8 9 9 9 3 0 -11 55 -12 66 -1 12 12
26 8 19 -5 -4 -7 1 -4 10 7 14 17 17 18 25 5 7 -10 10 -11 10 -2 0 6 7 12 16
12 11 0 14 -6 10 -17 -5 -15 -4 -15 9 1 8 11 15 16 15 12 0 -4 10 0 22 8 12 9
30 16 38 16 18 0 60 40 60 57 0 6 8 10 18 8 20 -3 44 14 36 26 -2 5 8 11 23
15 15 4 33 11 40 16 7 5 16 7 22 4 5 -4 17 2 27 11 9 9 37 27 63 39 25 13 44
25 41 29 -8 9 39 54 53 51 7 -1 9 -1 5 1 -5 3 -8 9 -8 14 0 6 4 8 9 5 5 -4 19
14 31 39 12 25 25 43 29 40 5 -2 17 2 27 9 15 11 22 12 33 3 9 -8 12 -8 8 -1
-3 6 16 37 43 69 28 33 50 63 50 68 0 4 4 6 9 3 5 -3 12 1 15 10 3 8 2 12 -4
9 -6 -3 -10 -2 -10 4 0 5 5 11 11 13 6 2 13 26 15 52 5 72 12 86 40 86 14 0
23 4 20 9 -4 5 -1 11 5 13 7 2 12 22 13 45 1 23 4 45 9 49 4 4 7 15 7 25 0 12
10 18 35 21 20 2 38 2 41 -1 2 -3 17 -7 32 -9 15 -2 29 -7 32 -12 3 -6 16 -8
29 -5 16 3 21 0 18 -9 -3 -8 0 -22 7 -32 6 -11 11 -29 10 -41 -1 -13 3 -23 8
-23 5 0 7 -4 4 -9 -4 -5 24 -9 64 -8 65 2 71 0 66 -17 -4 -14 -2 -16 7 -7 16
16 27 14 28 -6 0 -11 3 -13 6 -5 3 8 17 0 40 -23 20 -20 49 -43 65 -51 15 -8
28 -19 28 -25 0 -6 4 -8 9 -5 5 3 11 -1 15 -9 3 -8 12 -15 19 -15 7 0 20 -11
27 -25 7 -14 19 -25 27 -25 12 0 16 -10 11 -27 -2 -5 -7 -7 -11 -5 -5 1 -5 -3
-2 -9 5 -8 10 -8 18 0 6 6 15 11 21 11 5 0 6 -3 2 -7 -4 -5 9 -13 31 -19 21
-7 37 -17 35 -23 -1 -6 2 -11 8 -11 5 0 10 -7 10 -15 0 -8 11 -22 25 -31 14
-9 23 -20 20 -24 -3 -4 3 -7 13 -6 12 1 16 -5 14 -23 -2 -16 6 -32 22 -45 20
-17 23 -25 15 -45 -7 -17 -13 -21 -20 -14 -16 16 -59 3 -59 -18 0 -10 6 -22
14 -26 21 -12 37 -50 29 -70 -5 -14 -2 -13 14 5 24 26 33 28 33 7 0 -8 4 -15
8 -15 11 0 44 -72 42 -91 -5 -32 1 -70 9 -65 10 7 47 -61 46 -84 0 -8 6 -22
15 -30 17 -16 18 -19 26 -115 3 -33 6 -66 6 -73 1 -7 8 -10 15 -7 8 3 17 5 19
5 2 0 4 7 4 15 0 8 5 15 10 15 6 0 10 13 10 29 0 21 6 32 20 36 11 3 20 11 20
17 0 5 7 8 15 4 16 -6 16 14 0 26 -9 7 16 13 38 9 4 0 7 3 7 8 0 6 10 8 21 6
12 -3 27 -1 33 3 31 19 59 9 36 -14 -6 -6 13 -9 52 -8 39 1 63 6 69 15 5 8 9
10 9 5 0 -5 6 -3 14 3 8 7 27 9 43 6 23 -4 24 -4 8 4 -11 5 -17 10 -12 12 4 1
12 3 17 4 6 1 11 3 13 5 1 1 13 3 25 4 13 2 27 9 32 16 6 10 6 175 0 175 -1 0
-3 19 -5 41 -1 23 -6 47 -9 53 -4 6 0 11 11 11 11 0 14 3 7 8 -14 9 -14 74 1
84 6 5 3 8 -7 8 -14 0 -16 9 -15 55 1 30 -2 57 -8 59 -5 3 -2 5 8 5 14 1 16 5
7 20 -5 11 -10 49 -10 85 0 42 -4 66 -12 69 -7 3 -4 6 7 6 17 1 17 3 5 11 -11
7 -15 32 -16 102 -1 51 -2 93 -4 93 -4 0 -9 40 -11 89 -1 28 -7 57 -13 65 -14
18 -15 93 0 87 6 -2 11 2 11 9 0 8 -3 14 -6 13 -18 -2 -33 3 -28 9 4 3 2 12
-4 19 -6 8 -9 21 -5 29 3 9 0 15 -10 15 -8 0 -12 5 -9 10 3 6 2 10 -4 10 -6 0
-6 11 -1 29 6 23 5 29 -5 25 -16 -6 -59 80 -51 101 3 8 1 15 -5 15 -6 0 -6 7
1 20 11 20 -3 30 -15 10 -10 -16 -22 -3 -28 30 -4 17 -16 40 -27 52 -15 17
-17 24 -8 35 9 11 8 13 -1 11 -19 -4 -46 51 -42 85 1 9 -3 17 -9 17 -6 0 -14
8 -17 18 -4 9 -19 28 -35 42 -15 14 -37 43 -48 65 -12 22 -19 31 -15 20 4 -17
2 -16 -15 5 -11 14 -20 33 -20 43 0 9 -4 17 -10 17 -5 0 -7 7 -3 16 5 14 2 16
-20 10 -22 -5 -27 -3 -28 11 0 12 -2 13 -6 5 -3 -9 -10 -4 -19 13 -8 15 -12
31 -9 35 3 4 -2 11 -11 14 -8 3 -13 10 -10 15 3 4 -4 8 -17 7 -12 0 -21 4 -20
11 1 6 -11 14 -27 18 -28 6 -36 22 -31 57 0 4 -5 5 -12 2 -21 -8 -70 15 -64
29 3 9 -3 13 -17 13 -17 -1 -21 4 -18 29 2 20 0 26 -6 17 -7 -10 -13 -7 -26
13 -9 14 -14 31 -9 38 4 8 1 7 -10 -2 -9 -7 -17 -9 -17 -3 0 5 -9 12 -21 15
-12 3 -18 10 -14 16 3 6 1 11 -6 11 -8 0 -8 5 2 18 7 9 9 14 5 10 -5 -4 -15 0
-23 10 -9 10 -12 11 -7 2 4 -9 -3 -6 -17 6 -13 12 -35 25 -48 29 -17 5 -20 9
-10 15 9 6 2 14 -24 26 -20 10 -37 23 -37 30 0 7 -14 21 -31 32 -17 10 -30 22
-30 26 3 19 0 26 -9 21 -5 -3 -10 -2 -10 3 0 5 -14 15 -31 23 -18 7 -42 23
-54 35 -13 13 -26 20 -29 17 -3 -4 -6 1 -6 11 0 10 -5 14 -11 10 -6 -3 -14 -1
-18 5 -4 6 -18 14 -32 16 -13 2 -33 15 -45 29 -29 33 -57 46 -98 46 -32 0 -36
3 -36 27 0 14 -3 23 -7 20 -3 -4 -12 2 -20 13 -8 11 -23 20 -34 20 -11 0 -18
3 -16 8 7 11 -15 27 -38 27 -11 0 -19 6 -18 12 2 7 0 12 -5 11 -4 -1 -17 4
-30 11 -13 7 -30 10 -38 7 -8 -3 -13 -2 -9 3 3 5 -8 12 -25 16 -16 4 -30 11
-30 16 0 6 5 7 10 4 6 -3 10 -2 10 3 0 15 -26 22 -38 10 -8 -8 -15 -8 -26 1
-7 6 -25 14 -37 17 -13 3 -31 7 -39 9 -8 2 -18 4 -22 4 -5 1 -8 6 -8 11 0 6 7
10 16 8 10 -2 19 4 21 12 3 9 1 11 -4 5 -13 -16 -93 -2 -93 16 0 5 -16 9 -35
9 -19 0 -35 5 -35 11 0 5 -4 8 -9 5 -8 -5 -68 20 -81 34 -3 3 -14 6 -25 6 -61
2 -76 5 -70 14 3 6 3 10 -2 11 -4 0 -21 2 -38 4 -16 2 -64 6 -106 7 -46 2 -83
9 -93 17 -15 12 -16 12 -9 -5 6 -17 5 -18 -12 -4 -10 8 -28 13 -41 12 -13 -2
-24 1 -24 6 0 6 -12 9 -26 7 -19 -2 -24 1 -19 13 5 13 3 13 -11 1 -19 -16 -54
-22 -54 -10 0 13 -38 17 -105 10z"/>
<path d="M3895 6739 c-4 -6 -5 -12 -2 -15 2 -3 7 2 10 11 7 17 1 20 -8 4z"/>
<path d="M4567 6380 c3 -11 9 -17 15 -14 5 3 4 12 -3 20 -16 19 -18 18 -12 -6z"/>
<path d="M4690 6319 c0 -5 5 -7 10 -4 6 3 10 8 10 11 0 2 -4 4 -10 4 -5 0 -10
-5 -10 -11z"/>
<path d="M4838 6203 c6 -2 10 -9 7 -14 -4 -5 1 -6 10 -2 13 5 14 7 3 14 -7 5
-17 8 -23 8 -5 0 -4 -3 3 -6z"/>
<path d="M5055 5980 c-3 -5 -1 -10 4 -10 6 0 11 5 11 10 0 6 -2 10 -4 10 -3 0
-8 -4 -11 -10z"/>
<path d="M5153 5905 c0 -8 4 -12 9 -9 5 3 6 10 3 15 -9 13 -12 11 -12 -6z"/>
<path d="M5270 5789 c0 -5 5 -7 10 -4 6 3 10 8 10 11 0 2 -4 4 -10 4 -5 0 -10
-5 -10 -11z"/>
<path d="M3433 5451 c0 -11 5 -18 9 -15 4 3 5 11 1 19 -7 21 -12 19 -10 -4z"/>
<path d="M3618 5458 c5 -5 16 -8 23 -6 8 3 3 7 -10 11 -17 4 -21 3 -13 -5z"/>
<path d="M3336 5442 c-3 -5 1 -9 9 -9 8 0 12 4 9 9 -3 4 -7 8 -9 8 -2 0 -6 -4
-9 -8z"/>
<path d="M3370 5441 c0 -6 4 -13 10 -16 6 -3 7 1 4 9 -7 18 -14 21 -14 7z"/>
<path d="M5046 5392 c-9 -14 9 -31 23 -23 7 5 10 14 7 20 -8 13 -23 14 -30 3z"/>
<path d="M1830 5145 c0 -8 5 -15 10 -15 6 0 10 7 10 15 0 8 -4 15 -10 15 -5 0
-10 -7 -10 -15z"/>
<path d="M1355 5109 c-4 -6 -5 -12 -2 -15 2 -3 7 2 10 11 7 17 1 20 -8 4z"/>
<path d="M5770 5046 c0 -2 9 -6 20 -9 11 -3 18 -1 14 4 -5 9 -34 13 -34 5z"/>
<path d="M4986 5024 c-4 -11 -1 -14 11 -12 9 2 18 9 21 16 6 18 -25 15 -32 -4z"/>
<path d="M4400 4621 c0 -6 4 -13 10 -16 6 -3 7 1 4 9 -7 18 -14 21 -14 7z"/>
<path d="M4973 4523 c0 -9 4 -10 14 -2 7 6 13 12 13 14 0 1 -6 2 -13 2 -8 0
-14 -6 -14 -14z"/>
<path d="M2013 4371 c0 -11 5 -18 9 -15 4 3 5 11 1 19 -7 21 -12 19 -10 -4z"/>
<path d="M4954 4380 c2 -16 20 -14 24 2 3 10 2 10 -6 -1 -7 -9 -11 -10 -15 -2
-4 7 -5 8 -3 1z"/>
<path d="M4221 4326 c-8 -10 -9 -16 -1 -21 6 -4 9 -1 8 7 -2 7 3 12 10 10 8
-1 11 2 7 8 -8 13 -10 13 -24 -4z"/>
<path d="M2570 4211 c0 -10 19 -25 25 -20 1 2 -3 10 -11 17 -8 7 -14 8 -14 3z"/>
<path d="M5130 4198 c0 -4 4 -8 9 -8 6 0 12 4 15 8 3 5 -1 9 -9 9 -8 0 -15 -4
-15 -9z"/>
<path d="M1669 3833 c-1 -5 -1 -12 0 -17 1 -4 -4 -16 -11 -25 -12 -14 -11 -14
4 -3 9 7 16 22 15 33 -1 19 -6 26 -8 12z"/>
<path d="M1613 3765 c0 -8 4 -12 9 -9 5 3 6 10 3 15 -9 13 -12 11 -12 -6z"/>
<path d="M5908 3673 c7 -3 16 -2 19 1 4 3 -2 6 -13 5 -11 0 -14 -3 -6 -6z"/>
<path d="M2220 3480 c-9 -6 -10 -10 -3 -10 6 0 15 5 18 10 8 12 4 12 -15 0z"/>
<path d="M2480 3483 c5 -2 8 -9 5 -13 -3 -5 -1 -11 4 -14 5 -4 8 2 7 11 -2 9
-8 18 -15 19 -6 1 -7 0 -1 -3z"/>
<path d="M2252 3466 c13 -16 -26 -34 -77 -37 -28 -1 -56 -7 -62 -12 -7 -5 -19
-7 -27 -4 -11 4 -13 1 -9 -10 5 -12 2 -15 -9 -10 -10 3 -19 0 -22 -10 -4 -8
-12 -13 -20 -10 -10 4 -12 0 -9 -14 4 -15 2 -18 -12 -12 -13 4 -16 3 -11 -5 5
-9 -7 -12 -43 -12 -28 0 -51 4 -51 10 0 10 -43 20 -106 23 -23 1 -48 8 -56 14
-8 7 -23 10 -34 7 -19 -5 -37 8 -46 30 -5 15 -104 12 -100 -3 1 -7 -2 -10 -7
-7 -13 8 -42 -4 -35 -15 3 -5 2 -14 -2 -20 -5 -8 -9 -8 -14 1 -5 8 -12 7 -25
-6 -11 -12 -14 -19 -6 -22 6 -2 9 -8 6 -13 -4 -5 1 -6 9 -3 22 8 20 -13 -1
-25 -11 -6 -13 -11 -5 -11 7 0 11 -4 7 -9 -3 -5 4 -12 14 -16 11 -3 23 -15 26
-26 5 -15 13 -20 30 -16 23 4 24 3 9 -24 -27 -54 -13 -117 37 -158 17 -14 20
-20 9 -21 -13 0 -13 -2 -1 -9 11 -7 9 -14 -13 -37 -14 -16 -26 -34 -26 -41 0
-7 -4 -13 -8 -13 -11 0 -35 -48 -38 -74 -1 -10 -8 -22 -15 -27 -8 -4 -14 -12
-15 -16 -4 -38 -68 -125 -76 -102 -3 9 -6 8 -11 -5 -4 -10 -3 -15 3 -11 6 3
10 0 10 -7 0 -13 -33 -39 -46 -37 -14 2 -22 -26 -13 -48 5 -14 5 -23 -1 -23
-6 0 -10 -7 -10 -15 0 -8 -16 -30 -36 -50 -20 -20 -34 -42 -31 -48 3 -7 -1
-21 -8 -31 -8 -10 -11 -24 -8 -32 3 -8 -4 -17 -18 -23 -24 -8 -28 -23 -31
-103 0 -16 -5 -28 -9 -28 -19 0 -28 -38 -17 -68 10 -24 17 -30 40 -30 17 1 30
8 33 19 8 23 32 31 56 19 23 -13 23 -12 -1 -55 -11 -20 -16 -34 -10 -30 20 12
24 -27 4 -42 -10 -8 -18 -19 -16 -24 1 -5 -7 -19 -18 -31 -23 -25 -14 -35 28
-33 58 3 78 19 74 56 -1 6 11 11 61 24 4 2 10 4 15 5 4 1 10 2 15 1 4 0 7 4 7
11 0 6 3 8 7 5 3 -4 11 -3 17 2 6 5 31 12 56 15 25 3 69 10 97 14 29 5 55 7
57 4 3 -2 23 -6 45 -7 43 -4 66 19 30 30 -10 4 -19 11 -19 16 0 18 -25 36 -48
34 -29 -2 -43 15 -35 43 8 31 39 28 51 -5 l9 -28 19 35 c16 30 54 52 54 31 0
-4 9 -7 20 -7 13 0 20 7 20 19 0 10 13 26 30 35 16 9 31 26 32 37 2 11 9 19
16 18 6 -2 11 3 9 10 -1 8 13 13 41 15 28 2 42 -1 42 -9 0 -7 3 -10 6 -6 4 3
15 -4 26 -16 11 -12 16 -16 12 -8 -6 11 -3 13 12 7 39 -16 53 -15 47 1 -4 11
-2 14 5 9 7 -4 12 -2 12 5 0 7 8 9 21 6 17 -4 19 -3 10 6 -14 14 -15 30 -1 22
6 -4 16 -2 23 3 11 8 56 9 112 0 29 -4 85 -40 79 -50 -3 -5 6 -20 21 -34 29
-27 72 -29 91 -5 14 18 49 10 48 -12 -1 -9 2 -15 6 -12 5 3 10 2 13 -2 2 -5 2
-3 1 4 -2 7 1 15 6 18 6 4 10 -2 10 -12 0 -10 7 -27 15 -37 18 -24 20 -60 3
-50 -7 4 -8 3 -4 -5 4 -6 2 -18 -4 -26 -9 -11 -17 -12 -32 -4 -15 8 -19 8 -13
0 8 -14 -25 -10 -65 6 -16 7 -32 7 -42 1 -10 -5 -18 -5 -18 -1 0 4 -5 2 -12
-5 -7 -7 -21 -12 -33 -12 -25 0 -63 -25 -53 -35 4 -4 20 -3 37 3 26 9 32 8 46
-11 9 -12 14 -17 11 -11 -3 7 7 14 25 18 42 8 51 8 45 -2 -3 -4 23 -7 57 -7
34 1 70 -2 80 -7 12 -6 23 -6 31 1 7 6 15 9 17 7 2 -2 30 -7 63 -10 32 -3 64
-10 70 -14 6 -5 27 -7 46 -5 88 10 101 10 105 2 3 -4 19 -6 36 -2 33 6 112
-15 103 -28 -2 -4 8 -6 23 -3 59 10 62 12 60 59 -1 24 -4 42 -8 39 -13 -7 -32
27 -34 59 -2 42 -14 67 -29 61 -7 -3 -19 2 -26 10 -7 9 -16 13 -21 10 -5 -3
-9 3 -10 13 0 10 -3 13 -6 6 -4 -10 -9 -10 -26 -1 -21 11 -29 14 -76 21 -24 4
-52 27 -46 37 2 4 -4 15 -15 25 -11 10 -17 23 -13 29 3 6 3 8 -2 4 -4 -4 -16
3 -26 17 -11 13 -42 31 -69 40 -31 10 -50 22 -50 32 0 13 -2 13 -17 2 -13 -11
-17 -11 -20 -1 -3 6 -9 12 -15 12 -18 0 -102 44 -111 57 -4 7 -15 13 -23 13
-9 0 -12 5 -8 12 4 6 3 8 -3 5 -12 -7 -74 20 -85 37 -4 6 -8 7 -8 2 0 -5 -7
-3 -15 4 -10 8 -40 12 -81 11 -57 -2 -69 -6 -90 -28 -22 -24 -29 -23 -25 1 1
5 -5 4 -13 -3 -12 -10 -21 -10 -48 4 -18 9 -44 19 -58 21 -13 3 -29 9 -36 15
-6 5 -14 6 -17 2 -8 -7 -54 14 -76 35 -7 7 -21 10 -30 7 -48 -20 -71 -22 -94
-10 -33 17 -150 13 -173 -6 -19 -16 -24 -16 -35 2 -6 10 -13 10 -31 2 -41 -20
-54 -21 -73 -7 -19 14 -19 15 2 20 12 3 24 15 26 26 3 11 10 17 15 14 5 -3 12
4 15 15 4 16 11 20 26 16 12 -3 19 -1 15 4 -3 5 0 10 5 10 6 1 17 2 24 3 6 1
21 -5 31 -13 12 -10 16 -11 12 -3 -6 10 1 12 36 7 95 -15 189 -17 202 -6 10 8
16 9 21 1 3 -6 11 -8 16 -4 5 3 6 10 3 16 -5 7 -1 9 9 5 10 -4 17 -2 17 4 0 6
6 9 13 6 7 -3 24 1 38 9 13 7 37 13 52 14 16 0 38 5 49 11 16 9 19 8 12 -3 -5
-8 1 -7 19 5 14 9 35 17 46 17 11 0 23 5 26 10 4 6 10 8 15 5 5 -3 11 -1 15 5
9 14 66 39 100 42 30 4 80 27 58 28 -10 0 -13 29 -2 32 14 4 126 -16 136 -24
8 -6 19 -6 33 2 11 6 25 8 30 5 6 -4 10 -3 9 2 -4 24 4 32 31 31 36 -1 45 6
45 38 1 17 -3 23 -13 19 -10 -4 -12 0 -8 12 5 15 4 15 -9 -1 -13 -17 -15 -18
-15 -3 0 9 6 17 13 18 21 2 71 -2 92 -7 14 -4 16 -3 7 4 -17 12 11 37 33 28 9
-3 15 0 15 9 0 14 12 19 33 16 4 0 6 2 6 6 -4 22 3 35 14 30 10 -4 13 2 9 18
-3 17 2 25 17 30 12 3 21 9 22 13 0 4 2 21 4 37 2 17 6 39 10 50 3 11 0 29 -9
40 -12 16 -18 18 -33 9 -10 -6 -18 -17 -19 -25 0 -8 -2 -17 -4 -21 -1 -5 -3
-14 -4 -20 -1 -7 -11 -12 -23 -12 -14 1 -20 -3 -16 -12 3 -8 0 -14 -7 -14 -6
0 -8 -5 -4 -11 9 -15 -16 -30 -38 -23 -11 3 -18 0 -18 -8 0 -15 -37 -18 -57
-5 -17 11 -33 0 -33 -22 0 -15 -9 -18 -52 -17 -29 1 -58 5 -65 9 -16 10 -142
7 -149 -4 -3 -5 -14 -9 -25 -9 -10 0 -27 -9 -36 -20 -18 -21 -76 -27 -102 -11
-10 6 -22 1 -40 -19 -25 -27 -72 -46 -84 -34 -6 7 53 60 63 57 3 -1 7 10 8 23
1 14 6 33 11 43 7 12 6 22 -1 29 -9 9 -4 12 19 12 18 0 35 4 38 10 8 13 77 4
87 -12 6 -10 8 -10 8 -1 0 7 7 10 17 6 11 -4 14 -3 9 5 -11 18 2 14 25 -7 12
-11 18 -24 15 -29 -3 -6 0 -12 7 -15 15 -6 47 15 47 32 0 7 14 9 43 5 60 -7
119 -5 133 7 21 18 -3 95 -33 106 -24 9 -45 31 -40 40 3 5 -7 9 -21 9 -97 5
-122 12 -122 32 0 13 -2 14 -9 4 -8 -13 -91 -15 -91 -2 0 4 -7 7 -15 7 -8 0
-15 -3 -15 -7 0 -12 -63 -10 -79 2 -9 7 -13 8 -9 4z"/>
<path d="M2710 3259 c0 -5 5 -7 10 -4 6 3 10 8 10 11 0 2 -4 4 -10 4 -5 0 -10
-5 -10 -11z"/>
<path d="M2733 2952 c-10 -7 -11 -22 -4 -76 0 -4 12 -1 26 8 14 9 25 13 25 9
0 -4 6 2 14 12 12 17 12 22 -7 37 -22 20 -35 22 -54 10z"/>
<path d="M2820 2920 c0 -5 9 -10 20 -10 11 0 20 5 20 10 0 6 -9 10 -20 10 -11
0 -20 -4 -20 -10z"/>
<path d="M2606 2903 c-4 -5 -13 -8 -19 -8 -7 0 -13 -10 -15 -22 -3 -17 2 -23
17 -23 22 0 63 38 55 52 -6 10 -28 11 -38 1z"/>
<path d="M1453 2833 c0 -10 4 -10 16 -1 9 7 18 13 20 15 2 1 -5 1 -16 0 -11 0
-20 -7 -20 -14z"/>
<path d="M2900 2778 c0 -5 -3 -7 -8 -4 -4 2 -14 -1 -22 -7 -17 -13 -23 -137
-8 -137 5 0 6 5 3 10 -12 19 8 10 27 -12 17 -20 27 -22 96 -20 42 2 85 5 94 8
23 7 26 52 6 94 -9 19 -15 37 -14 40 2 3 -5 13 -16 23 -10 9 -18 12 -18 7 0
-7 -6 -7 -17 -2 -24 12 -123 12 -123 0z"/>
<path d="M1960 2351 c0 -6 4 -13 10 -16 6 -3 7 1 4 9 -7 18 -14 21 -14 7z"/>
<path d="M2389 2283 c-13 -16 -12 -17 4 -4 9 7 17 15 17 17 0 8 -8 3 -21 -13z"/>
<path d="M2570 2201 c0 -5 5 -13 10 -16 6 -3 10 -2 10 4 0 5 -4 13 -10 16 -5
3 -10 2 -10 -4z"/>
<path d="M3185 2180 c3 -5 8 -10 11 -10 2 0 4 5 4 10 0 6 -5 10 -11 10 -5 0
-7 -4 -4 -10z"/>
<path d="M1229 1438 c-7 -29 -5 -43 5 -54 14 -13 10 -67 -4 -59 -7 4 -6 -24 0
-32 3 -4 7 -20 9 -34 0 -5 7 -7 14 -3 9 6 9 4 -1 -8 -8 -10 -9 -17 -3 -20 6
-1 11 -19 12 -38 2 -19 6 -40 10 -45 5 -6 11 -26 14 -45 3 -19 13 -42 20 -50
12 -13 12 -19 2 -30 -10 -10 -9 -11 2 -5 10 6 11 2 6 -15 -5 -17 -4 -21 5 -15
9 5 11 4 6 -4 -4 -6 -3 -17 2 -24 6 -7 13 -30 17 -52 4 -22 12 -45 17 -52 6
-7 3 -15 -9 -22 -17 -10 -17 -10 0 -11 11 0 23 -12 30 -30 6 -16 14 -30 17
-30 8 0 3 -67 -5 -80 -3 -6 -1 -10 5 -10 7 0 10 -7 7 -14 -4 -10 -1 -13 9 -9
17 6 18 -8 2 -26 -7 -8 -8 -11 -3 -8 18 10 37 -9 38 -37 1 -14 6 -26 10 -26 4
0 4 -8 -1 -17 -11 -21 -5 -46 9 -37 5 3 14 2 20 -2 8 -4 7 -9 -2 -15 -11 -7
-11 -9 2 -9 18 0 33 -26 24 -41 -4 -5 0 -7 7 -4 7 3 19 -5 27 -17 12 -19 11
-23 -5 -36 -18 -14 -18 -14 -1 -8 29 9 102 -37 90 -57 -3 -6 -1 -7 5 -3 6 4
18 -5 28 -19 9 -13 20 -22 25 -19 5 3 9 0 9 -6 0 -6 4 -9 9 -5 5 3 16 -1 24
-9 8 -8 23 -16 33 -18 10 -2 24 -9 29 -15 6 -7 19 -14 30 -16 28 -4 46 -17 39
-28 -3 -5 -2 -9 3 -8 22 4 25 -2 7 -17 -18 -14 -18 -15 5 -4 13 7 39 9 60 6
20 -4 48 -7 63 -7 15 -1 26 -5 23 -9 -3 -4 11 -11 30 -14 19 -4 35 -11 35 -17
0 -6 5 -7 10 -4 6 3 10 1 10 -5 0 -7 6 -8 19 0 14 7 22 7 26 -1 4 -6 13 -8 21
-5 7 3 16 1 19 -3 3 -5 15 -7 27 -3 12 3 19 1 15 -5 -4 -6 14 -8 48 -6 30 2
55 -1 55 -6 0 -5 37 -10 83 -11 107 -2 107 -2 107 -9 0 -7 357 -4 465 4 44 3
88 6 98 6 9 0 17 4 17 8 0 4 29 7 64 7 35 -1 62 2 60 5 -5 8 44 27 71 27 11 1
40 6 65 12 25 6 51 11 58 12 6 1 12 5 12 10 0 4 7 8 15 8 8 0 15 -6 15 -12 0
-10 2 -10 8 0 5 7 17 10 28 6 14 -4 15 -3 5 4 -10 7 -10 11 -1 17 6 4 17 -1
25 -11 12 -17 13 -16 8 10 -4 20 -2 27 6 22 6 -4 11 -2 11 5 0 7 3 9 7 6 3 -4
17 0 31 9 22 14 25 14 42 -1 14 -12 20 -13 26 -4 4 7 3 10 -4 5 -6 -3 -13 -2
-17 4 -3 5 -1 10 4 10 6 0 11 6 11 14 0 8 11 17 25 20 13 3 29 15 35 26 6 11
16 17 25 14 8 -4 12 -11 8 -17 -3 -6 -1 -7 6 -3 6 4 9 12 6 17 -4 5 2 9 12 9
10 0 27 7 37 15 11 8 29 15 39 15 17 0 18 -2 6 -18 -13 -15 -12 -16 4 -3 9 7
17 19 17 25 0 6 11 24 25 40 14 16 25 26 25 21 0 -4 7 -2 16 6 13 10 17 10 25
-2 8 -12 13 -6 11 12 -1 4 12 9 29 13 17 3 28 9 25 14 -2 4 -2 13 2 19 10 16
91 55 102 48 4 -3 18 8 30 25 12 17 26 27 32 24 6 -4 8 -2 4 4 -6 11 10 26 29
27 6 1 9 7 7 14 -2 9 3 11 14 7 14 -5 15 -4 5 8 -9 11 -7 15 14 20 14 4 23 10
20 15 -6 11 24 23 37 14 7 -3 8 -1 4 5 -8 13 23 72 37 72 12 0 87 82 82 90 -2
4 5 17 16 29 11 12 17 26 14 31 -3 6 0 10 7 10 8 0 20 9 28 20 8 11 18 20 23
20 12 0 46 42 47 57 0 6 -9 15 -20 18 -11 4 -18 11 -15 16 4 5 -1 9 -9 9 -9 0
-16 5 -16 10 0 6 -6 10 -12 10 -15 -1 -118 -113 -118 -129 0 -15 -17 -14 -24
2 -3 6 -3 1 0 -12 4 -16 2 -21 -5 -17 -7 5 -9 1 -5 -8 6 -15 -17 -22 -48 -17
-5 0 -8 -5 -8 -12 0 -20 -67 -80 -79 -72 -7 3 -10 1 -9 -6 2 -7 -7 -14 -18
-15 -12 0 -26 -4 -32 -8 -6 -4 -17 2 -24 14 -7 11 -16 20 -21 20 -4 0 -6 -4
-2 -10 8 -13 -39 12 -56 30 -8 8 -15 35 -15 60 -5 157 -5 157 -31 169 -26 12
-29 8 -35 -39 -2 -14 -6 -24 -10 -22 -5 1 -8 4 -8 7 1 3 -17 22 -39 42 -22 20
-38 41 -34 47 3 6 2 8 -2 3 -5 -4 -19 0 -33 9 -17 11 -22 12 -17 3 6 -10 2 -9
-11 2 -20 16 -54 15 -54 -2 0 -6 -4 -8 -9 -5 -5 3 -12 -1 -15 -10 -3 -8 -2
-12 4 -9 6 3 7 -1 4 -9 -3 -9 -11 -13 -17 -9 -18 11 -47 11 -54 0 -3 -5 0 -12
6 -16 6 -4 9 -15 5 -24 -6 -18 -78 -25 -88 -9 -3 5 -41 8 -85 7 -45 -1 -82 1
-82 4 -15 67 -25 161 -17 161 5 0 12 10 17 23 6 16 4 24 -8 29 -29 12 -71 9
-71 -5 0 -8 -15 -27 -32 -43 -40 -36 -80 -38 -112 -6 -13 12 -29 22 -35 22 -6
0 -11 5 -11 11 0 5 -5 7 -10 4 -6 -4 -17 -2 -25 5 -11 9 -16 7 -24 -8 -8 -14
-6 -21 9 -32 10 -7 16 -19 13 -27 -3 -7 0 -13 6 -13 6 0 11 -4 11 -9 0 -5 -12
-3 -27 4 -48 24 -83 29 -83 13 0 -8 -9 -23 -20 -33 -11 -10 -17 -22 -14 -26 3
-5 0 -9 -7 -9 -7 0 -9 -3 -6 -7 4 -3 1 -13 -6 -21 -14 -18 -16 -72 -2 -72 6 0
11 -11 11 -25 2 -26 -13 -31 -51 -16 -22 9 -55 -4 -68 -25 -4 -8 -19 -14 -32
-14 -14 0 -25 -4 -25 -8 0 -4 -37 -7 -82 -7 -46 1 -90 -2 -98 -6 -8 -4 -23
-10 -32 -13 -20 -6 -14 -35 11 -51 15 -9 20 -11 38 -14 15 -2 -72 -44 -101
-48 -25 -4 -28 -2 -18 9 9 11 7 22 -6 49 -13 27 -22 33 -41 31 -19 -3 -23 0
-19 16 3 11 2 26 -3 33 -4 8 -3 20 4 28 9 12 9 13 0 7 -7 -4 -13 -2 -13 3 0 6
0 14 -1 19 -1 12 -31 42 -43 42 -16 1 -56 36 -56 50 0 15 -31 8 -52 -12 -18
-18 -39 -24 -37 -10 1 4 -2 17 -6 30 -8 23 -34 26 -63 8 -15 -9 -41 19 -42 46
0 9 -7 23 -15 31 -8 8 -14 25 -13 38 2 41 -2 49 -18 42 -16 -6 -58 30 -47 41
4 3 1 7 -5 7 -7 1 -16 3 -22 4 -5 1 -17 3 -25 4 -9 0 -20 11 -26 24 -10 23
-49 35 -49 16 0 -6 -4 -8 -9 -5 -5 3 -20 -9 -35 -26 -20 -25 -29 -29 -38 -20
-9 9 -9 12 0 12 18 0 35 39 23 54 -6 7 -7 16 -3 21 4 4 -7 0 -25 -9 -17 -9
-40 -13 -49 -9 -11 4 -15 3 -10 -5 3 -6 2 -13 -4 -17 -6 -4 -8 -10 -5 -15 3
-4 -2 -10 -10 -14 -8 -3 -12 -12 -9 -21 4 -9 0 -15 -10 -15 -8 0 -22 -12 -30
-27 -10 -20 -22 -27 -42 -28 -16 0 -32 3 -35 8 -8 11 -62 -11 -54 -22 3 -5 0
-13 -5 -16 -6 -4 -15 -18 -20 -31 -7 -16 -17 -24 -34 -24 -38 0 -51 25 -48 96
2 35 -1 64 -6 64 -6 0 -13 11 -16 25 -4 14 -12 24 -19 22 -7 -1 -11 7 -9 21 3
18 -1 22 -25 22 -15 0 -43 9 -61 20 -39 24 -46 25 -39 6 5 -12 -11 -26 -28
-26 -3 0 -18 65 -19 85 -1 9 -45 21 -47 13z"/>
<path d="M1405 1430 c4 -6 11 -8 16 -5 14 9 11 15 -7 15 -8 0 -12 -5 -9 -10z"/>
<path d="M3659 1033 c-13 -16 -12 -17 4 -4 16 13 21 21 13 21 -2 0 -10 -8 -17
-17z"/>
<path d="M2865 1020 c-3 -5 -15 -10 -26 -10 -28 0 -25 -43 4 -58 31 -17 99 7
104 37 2 15 -3 21 -17 22 -28 2 -33 3 -47 12 -6 4 -14 3 -18 -3z"/>
<path d="M4087 976 c-4 -9 3 -16 16 -20 26 -6 31 -2 24 19 -8 19 -33 20 -40 1z"/>
<path d="M4188 803 c7 -3 16 -2 19 1 4 3 -2 6 -13 5 -11 0 -14 -3 -6 -6z"/>
<path d="M2140 81 c0 -6 4 -13 10 -16 6 -3 7 1 4 9 -7 18 -14 21 -14 7z"/>
<path d="M3060 19 c0 -5 5 -7 10 -4 6 3 10 8 10 11 0 2 -4 4 -10 4 -5 0 -10
-5 -10 -11z"/>
</g>
</svg>
